/* XPM */
static char *b03ce6139ad44b2bee89b585dca8b465dmtkxGC9DOjxvHu8[] = {
/* columns rows colors chars-per-pixel */
"64 64 191 2 ",
"   c #010101",
".  c #0B0505",
"X  c #000209",
"o  c #050B0B",
"O  c #0B0C0C",
"+  c #190406",
"@  c #150B0B",
"#  c #1C0E0E",
"$  c #010715",
"%  c #041313",
"&  c #091313",
"*  c #2A0E03",
"=  c #231213",
"-  c #2B1616",
";  c #281C1C",
":  c #381417",
">  c #341A1A",
",  c #3A1D1D",
"<  c #0B2424",
"1  c #122424",
"2  c #162B2B",
"3  c #1A3434",
"4  c #1E3C3C",
"5  c #272E30",
"6  c #382D30",
"7  c #263939",
"8  c #540202",
"9  c #490F13",
"0  c #4B1A19",
"q  c #5A1518",
"w  c #651218",
"e  c #78161D",
"r  c #5F2C1E",
"t  c #432222",
"y  c #4C2727",
"u  c #452B2B",
"i  c #4F2828",
"p  c #522A2A",
"a  c #5C2E2E",
"s  c #543135",
"d  c #6C242B",
"f  c #643232",
"g  c #6B3636",
"h  c #6F3838",
"j  c #743B3B",
"k  c #7B3E3E",
"l  c #744D2A",
"z  c #011E58",
"x  c #0E285B",
"c  c #022976",
"v  c #012A7D",
"b  c #133271",
"n  c #4E3E42",
"m  c #0E4343",
"M  c #174949",
"N  c #1B5D5D",
"B  c #234545",
"V  c #2B4343",
"C  c #244B4B",
"Z  c #294D4D",
"A  c #3E4444",
"S  c #255555",
"D  c #2B5555",
"F  c #2D5B5B",
"G  c #3C5A52",
"H  c #315E5E",
"J  c #284C70",
"K  c #1F6868",
"L  c #206363",
"P  c #2A6C6C",
"I  c #336464",
"U  c #3A6464",
"Y  c #356A6B",
"T  c #3B6B6B",
"R  c #337373",
"E  c #3B7474",
"W  c #357B7B",
"Q  c #3D7A7A",
"!  c #4E4040",
"~  c #435B5B",
"^  c #5A595B",
"/  c #7F4040",
"(  c #71494F",
")  c #6F535B",
"_  c #5C635D",
"`  c #4A6D6D",
"'  c #427272",
"]  c #427E7E",
"[  c #567979",
"{  c #666666",
"}  c #766E71",
"|  c #820606",
" . c #900606",
".. c #B90000",
"X. c #9D2917",
"o. c #B43814",
"O. c #881921",
"+. c #9D1D27",
"@. c #A81E2A",
"#. c #90212B",
"$. c #8D2E3B",
"%. c #8B3131",
"&. c #AE2426",
"*. c #B6202E",
"=. c #B9212E",
"-. c #CC2C2A",
";. c #D93625",
":. c #C42332",
">. c #C23A3A",
",. c #DF4614",
"<. c #9E3B45",
"1. c #C53946",
"2. c #834242",
"3. c #8A4646",
"4. c #8E4848",
"5. c #944C4C",
"6. c #9A4F4F",
"7. c #8B535D",
"8. c #9C5050",
"9. c #AF454D",
"0. c #B25963",
"q. c #817F7F",
"w. c #C64A57",
"e. c #DE4353",
"r. c #DF4A5A",
"t. c #E35E6D",
"y. c #002A80",
"u. c #17439A",
"i. c #316C8D",
"p. c #326E9F",
"a. c #1248B1",
"s. c #174CB3",
"d. c #517F80",
"f. c #1651CA",
"g. c #1753CA",
"h. c #3060C1",
"j. c #2D64D4",
"k. c #316FEE",
"l. c #296BF1",
"z. c #398282",
"x. c #3E8A8A",
"c. c #428383",
"v. c #498282",
"b. c #468A8A",
"n. c #498D8D",
"m. c #548A8A",
"M. c #4C9393",
"N. c #4F9999",
"B. c #519B9B",
"V. c #529D9D",
"C. c #6A8888",
"Z. c #54A2A2",
"A. c #55A2A2",
"S. c #57A5A5",
"D. c #58A7A7",
"F. c #5AAAAA",
"G. c #5BADAD",
"H. c #5CAEAE",
"J. c #77A5A5",
"K. c #4F81E6",
"L. c gray53",
"P. c #8C8C8C",
"I. c #9C8882",
"U. c #8F9C9C",
"Y. c gray57",
"T. c #9B9B9B",
"R. c #84A3A3",
"E. c #94ACAC",
"W. c #9AABAB",
"Q. c #84B2B2",
"!. c #A7A4A4",
"~. c #ACACAC",
"^. c #A7BBBB",
"/. c #B2B2B2",
"(. c #BBBBBB",
"). c #C79F9F",
"_. c #C5B7B4",
"`. c #C9CFBF",
"'. c #BAC9C9",
"]. c #C6CAC4",
"[. c #CCCCCC",
"{. c #CCD6D6",
"}. c #D5D7D7",
"|. c #E4D8D1",
" X c #D9E3E3",
".X c #E3E5E5",
"XX c #E9E9E9",
"oX c #FFF7E3",
"OX c #F3F3F3",
"+X c #FEFEFE",
"@X c white",
/* pixels */
"@X@X@X@X@X@X@X@X@X@X@X@X@X@X@X@X@X@X@X@X@X@X@X@X@X@X@X@X@X@X@X@Xq.q.q.q.q.q.q.q.q.q.q.q.q.q.q.q.q.q.q.q.q.q.q.q.q.q.q.q.q.q.q.q.",
"@X@X@X@X@X@X@X@X@X@X@X@X@X@X@X@X@X@X@X@X@X@X@X@X@X@X@X@X@X@X@X@Xq.q.q.q.q.q.q.q.q.q.q.q.q.q.q.q.q.q.q.q.q.q.q.q.q.q.q.q.q.q.q.q.",
"@X@X@X@X@X@X@X@X@X@X@X@X@X@X@X@X@X@X@X@X@X@X@X@X@X@X@X@X@X@X@X@Xq.q.q.q.q.q.q.q.q.q.q.q.q.q.q.q.q.q.q.q.q.q.q.q.q.q.q.q.q.q.q.q.",
"@X@X@X@X@X@X@X@X@X@X@X@X@X@X@X@X@X@X@X@X@X@X@X@X@X@X@X@X@X@X@X@Xq.q.q.q.q.q.q.q.q.q.q.q.q.q.q.q.q.q.q.q.q.q.q.q.q.q.q.q.q.q.q.q.",
"@X@X@X@X@X@X@X@X@X@X@X@X@X@X@X@X@X@X@X@X@X@X@X@X@X@X@X@X@X@X@X@Xq.q.q.q.q.q.q.q.q.q.q.q.q.q.q.q.q.q.q.q.q.q.q.q.q.q.q.q.q.q.q.q.",
"@X@X@X@X@X@X@X@X@X@X@X@X@X@X@X@X@X@X@X@X@X@X@X@X@X@X@X@X@X@X@X@Xq.q.q.q.q.q.q.q.q.q.q.q.q.q.q.q.q.q.q.q.q.q.q.q.q.q.q.q.q.q.q.q.",
"@X@X@X@X@X@X@X@X@X@X@X@X@X@X@X@X@X@X@X@X@X@X@X@X@X@X@X@X@X@X@X@Xq.q.q.q.q.q.q.q.q.q.q.q.q.q.q.q.q.q.q.q.q.q.q.q.q.q.q.q.q.q.q.q.",
"@X@X@X@X@X@X@X@X@X@X@X@X@X@X@X@X@X@X@X@X@X@X@X@X@X@X@X@X@X@X@X@Xq.q.q.q.q.q.q.q.q.q.q.q.q.q.q.q.q.q.q.q.q.q.q.q.q.q.q.q.q.q.q.q.",
"@X@X@X@X@X@X@X@X@X@X@X@X@X@X@X@X@X@X@X@X@X@X@X@X@X@X@X@X@X@X@X@Xq.q.q.q.q.q.q.q.q.q.q.q.q.q.q.q.q.q.q.q.q.q.q.q.q.q.q.q.q.q.q.q.",
"@X@X@X@X@X@X@X@X@X@X@X@X@X@X@X@X@X@X@X@X@X@X@X@X@X@X@X@X@X@X@X@Xq.q.q.q.q.q.q.q.q.q.q.q.q.q.q.q.q.q.q.q.q.q.q.q.q.q.q.q.q.q.q.q.",
"@X@X@X@X@X@X@X@X@X@X@X@X@X@X@X@X@X@X@X@X@X@X@X@X@X@X  @X@X@X@X@Xq.q.q.q.q.q.q.q.q.q.q.q.q.q.q.q.q.q.q.q.q.q.q.q.q.q.q.q.q.q.q.q.",
"@X@X@X@X@X@X@X@X@X@X@X@X@X@X@X@X@X@X@X@X@X@X@X@X@X@X  @X@X@X@X@Xq.q.q.q.q.q.q.q.q.q.q.q.q.q.q.q.q.q.q.q.q.q.q.q.q.q.q.q.q.q.q.q.",
"@X@X@X@X@X@X@X@X@X@X@X@X@X@X@X@X@X@X@X@X@X@X@X@X@X-   @X@X@Xy , > > > t j } q.q.q.q.q.q.q.q.q.q.q.q.q.q.q.q.q.q.q.q.q.q.q.q.q.q.",
"@X@X@X@X@X@X@X@X@X@X@X@X@X@X@X@X@X@X@X@X@X      # g p i h 3.3.3.3.3.3.3.4.4.a s f q.q.q.q.q.q.q.q.q.q.q.q.q.q.q.q.q.q.q.q.q.q.q.",
"@X@X@X@X@X@X@X@X@X@X@X@X@X@X@X@X@X@X@X@X@X@X. > i h / k k k 2.k 2.2.2.2.2./ j k p = q.q.q.q.q.q.q.q.q.q.q.q.q.q.q.q.q.q.q.q.q.q.",
"@X@X@X@X@X@X@X@X@X@X@X@X@X@X@X@X@X@X@X@X@X@X> j g h j j j 2.k 2.2.2.2.2./ / l j g f k X q.q.q.q.q.q.q.q.q.q.q.q.q.q.q.q.q.q.q.q.",
"@X@X@X@X@X@X@X@X@X@X@X@X@X@X@X@X@X@X@X@X    # j 6.a 6.5.2.l k k l / / / k 2.5.8.8.2.@ q.q.q.q.q.q.q.q.q.q.q.q.q.q.q.q.q.q.q.q.q.",
"@X@X@X@X@X@X@X@X@X@X@X@X@X@X@X@X@X@X@X@X@X@X> j 3.f p 5.2.k 5.5.4.5.6.6.8.6.6.5.5.4.j 2.i   q.q.q.q.q.q.q.q.q.q.q.q.q.q.q.q.q.q.",
"@X@X@X@X@X@X@X@X@X@X@X@X@X@X@X@X@X@X@X@X@X@ f f f a p i f p j <.p f 2.k 3.3.j h g j 3.j . } q.q.q.q.q.q.q.q.q.q.q.q.q.q.q.q.q.q.",
"@X@X@X@X@X@X@X@X@X@X@X@X@X@X@X@X@X@X@X@X@X, f f a p - # , y y s i a a p a a p a a f j j # L.q.q.q.q.q.q.q.q.q.q.q.q.q.q.q.q.q.q.",
"@X@X@X@X@X@X@X@X@X@X@X@X@X@X@X@X@X@X@X@X@Xf a a p p . B V @ # y # - p : y p = p p a j g >   q.q.q.q.q.q.q.q.q.q.q.q.q.q.q.q.q.q.",
"@X@X@X@X@X@X@X@X@X@X@X@X@X@X@X@X@X@X@X@X@Xf a f > t u n.M.4 I m.$ ] ! ~ 7 t   ; , t f k q.q.q.q.q.q.q.q.q.q.q.q.q.q.q.q.q.q.q.q.",
"@X@X@X@X@X@X@X@X@X@X@X@X@X@X@X@X@X@X@X@X@Xg f a i ` o N.B.A.A.D.S.F.S.S.A.V.D Y B A i a   q.q.q.q.q.q.q.q.q.q.q.q.q.q.q.q.q.q.q.",
"@X@X@X@X@X@X@X@X@X@X@X@X@X@X@X@X@X@X@X@X@Xf a p p T C H V.A.H.H.G.F.F.S.A.A.V.B.M.3 t   # q.q.q.q.q.q.q.q.q.q.q.q.q.q.q.q.q.q.q.",
"@X@X@X@X@X@X@X@X@X@X@X@X@X@X@X@X@X@X@X@X@Xa p p t F H E V.A.F.H.G.G.F.D.S.S.S.n.E 2 # q.q.q.q.q.q.q.q.q.q.q.q.q.q.q.q.q.q.q.q.q.",
"@X@X@X@X@X@X@X@X@X@X@X@X@X@X@X@X@X@X@X@X@X- , p 5 2 n.v.J.Q.m.D.G.F.S.S.A.G.F.V.E <   q.q.q.q.q.q.q.q.q.q.q.q.q.q.q.q.q.q.q.q.q.",
"@X@X@X@X@X@X@X@X@X@X@X@X@X@X@X@X@X@X@X@X  3 ; , U B ' '. XXX'.] S.D.V.n.V.D.V.M.b.3 + d.q.q.q.q.q.q.q.q.q.q.q.q.q.q.q.q.q.q.q.q.",
"@X@X@X@X@X@X@X@X@X@X@X@X@X@X@X@X@X@X@Xn.Y Q C . U I [ @X@XOXXXW.V.V.V.N.V.V. X^.d.3 G 4 q.q.q.q.q.q.q.q.q.q.q.q.q.q.q.q.q.q.q.q.",
"@X@X@X@X@X@X@X@X@X@X@X@X@X@X@X@X@X@XD c.Q E Z   I I {.@X@XXXXXOXb.V.V.N.N.Y @X@XE.1 E c.  q.q.q.q.q.q.q.q.q.q.q.q.q.q.q.q.q.q.q.",
"@X@X@X@X@X@X@X@X@X@X@X@X@X@X@X@X@X@XN.b.E Q R 2 I I ` @XXXXXXXW.n.N.N.N.N.' OX.XE.1 I c.3 q.q.q.q.q.q.q.q.q.q.q.q.q.q.q.q.q.q.q.",
"@X@X@X@X@X@X@X@X@X@X@X@X@X@X@X@X@X@Xc.b.E Q E 4 I Q U {. XXX{.' M.M.M.M.M.E }..XJ.H E c.3 q.q.q.q.q.q.q.q.q.q.q.q.q.q.q.q.q.q.q.",
"@X@X@X@X@X@X@X@X@X@X@X@X@X@X@X@X@X@XC ] ] E E D H M.] H [ C.E c.M.n.M.n.n.n.m.R.d.A.n.E q.q.q.q.q.q.q.q.q.q.q.q.q.q.q.q.q.q.q.q.",
"q.q.q.q.q.q.q.q.q.q.q.q.q.q.q.q.q.q.d.7 V ` I I Y Q M.E ' E b.M.E E ' E n.b.n.] c.F 4 @X@X@X@X@X@X@X@X@X@X@X@X@X@X@X@X@X@X@X@X@X",
"q.q.q.q.q.q.q.q.q.q.q.q.q.q.q.q.q.q.q.q.q.d.s , F E E I c.] { n `.{.]._ ) T c.E B @X@X@X@X@X@X@X@X@X@X@X@X@X@X@X@X@X@X@X@X@X@X@X",
"q.q.q.q.q.q.q.q.q.q.q.q.q.q.q.q.q.q.q.q.q.q.9 w #.: o 1 Y 7.$.|.oX@XoXoX|.9.O & @X@X@X@X@X@X@X@X@X@X@X@X@X@X@X@X@X@X@X@X@X@X@X@X",
"q.q.q.q.q.q.q.q.q.q.q.q.q.q.q.q.q.q.q.q.q.+ e @.w +.*.:.-.X.* 1.I._.d 1.@X@X@X@X@X@X@X@X@X@X@X@X@X@X@X@X@X@X@X@X@X@X@X@X@X@X@X@X",
"q.q.q.q.q.q.q.q.q.q.q.q.q.q.q.q.q.q.q.q.I.w O.@.o.&.=.:.;.-.,.9.r.r.e.1.@X@X@X@X@X@X@X@X@X@X@X@X@X@X@X@X@X@X@X@X@X@X@X@X@X@X@X@X",
"q.q.q.q.q.q.q.q.q.q.q.q.q.q.q.q.q.q.q.q.v.9 a ( r e =.:.;.o.O.. <.t.w.a @X@X@X@X@X@X@X@X@X@X@X@X@X@X@X@X@X@X@X@X@X@X@X@X@X@X@X@X",
"q.q.q.q.q.q.q.q.q.q.q.q.q.q.q.q.q.q.q.q.1 0 Y M.6 w =.:.,.l 5 . @X0.y @X@X@X@X@X@X@X@X@X@X@X@X@X@X@X@X@X@X@X@X@X@X@X@X@X@X@X@X@X",
"q.q.q.q.q.q.q.q.q.q.q.q.q.q.q.q.q.q.q.q.Y = H b.m.^ 9 @.0 G R Q @XC 3 @XW x.  @X@X@X@X@X@X@X@X@X@X@X@X@X@X@X@X@X@X@X@X@X@X@X@X@X",
"q.q.q.q.q.q.q.q.q.q.q.q.q.q.q.q.q.q.q.q.] Y d.b.M.Z.M.Q 1 1 x b.z.R R x.R & S   @X@X@X@X@X@X@X@X@X@X@X@X@X@X@X@X@X@X@X@X@X@X@X@X",
"q.q.q.q.q.q.q.q.q.q.q.q.q.q.q.q.q.q.q.  ' Q Y S [ n.N.N.N.n.I E z.W z.x.Z W X @X@X@X@X@X@X@X@X@X@X@X@X@X@X@X@X@X@X@X@X@X@X@X@X@X",
"q.q.q.q.q.q.q.q.q.q.q.q.q.q.q.q.q.q.q.. u.K.K.h.J i.i.c.V.S.B M S R R R Y < P @X@X@X@X@X@X@X@X@X@X@X@X@X@X@X@X@X@X@X@X@X@X@X@X@X",
"q.q.q.q.q.q.q.q.q.q.q.q.q.q.q.q.q.q.q.+ y.g.j.s.a.g.s.E n.V.b.I M F D F F o D @X@X@X@X@X@X@X@X@X@X@X@X@X@X@X@X@X@X@X@X@X@X@X@X@X",
"q.q.q.q.q.q.q.q.q.q.q.q.q.q.q.q.q.q.q.X v g.k.h.c z v i.] b.Q 4 n.@X@X@X&   @X@X@X@X@X@X@X@X@X@X@X@X@X@X@X@X@X@X@X@X@X@X@X@X@X@X",
"q.q.q.q.q.q.q.q.q.q.q.q.q.q.q.q.q.q.q.X v g.l.k.q.$ v g.p.I E o 3 @X@X@X@X@X@X@X@X@X@X@X@X@X@X@X@X@X@X@X@X@X@X@X@X@X@X@X@X@X@X@X",
"q.q.q.q.q.q.q.q.q.q.q.q.q.q.q.q.q.q.q.  v f.l.a.q.  v a.F B I & @X@X@X@X@X@X@X@X@X@X@X@X@X@X@X@X@X@X@X@X@X@X@X@X@X@X@X@X@X@X@X@X",
"q.q.q.q.q.q.q.q.q.q.q.q.q.q.q.q.q.q.q.  z $ x b q.    o X X   q.@X@X@X@X@X@X@X@X@X@X@X@X@X@X@X@X@X@X@X@X@X@X@X@X@X@X@X@X@X@X@X@X",
"q.q.q.q.q.q.q.q.q.q.q.q.q.q.q.q.q.q.q.q.& ] ] q.q.  % K M q.q.q.@X@X@X@X@X@X@X@X@X@X@X@X@X@X@X@X@X@X@X@X@X@X@X@X@X@X@X@X@X@X@X@X",
"q.q.q.q.q.q.q.q.q.q.q.q.q.q.q.q.q.q.q.q.H N.B.L.q.q.M K P q.q.q.@X@X@X@X@X@X@X@X@X@X@X@X@X@X@X@X@X@X@X@X@X@X@X@X@X@X@X@X@X@X@X@X",
"q.q.q.q.q.q.q.q.q.q.q.q.q.q.q.q.q.q.q.q.c.V.b.} } < M N K q.q.q.@X@X@X@X@X@X@X@X@X@X@X@X@X@X@X@X@X@X@X@X@X@X@X@X@X@X@X@X@X@X@X@X",
"q.q.q.q.q.q.q.q.q.q.q.q.q.q.q.q.q.q.q.C M.b.B L.C.m N K q.q.q.q.@X@X@X@X@X@X@X@X@X@X@X@X@X@X@X@X@X@X@X@X@X@X@X@X@X@X@X@X@X@X@X@X",
"q.q.q.q.q.q.q.q.q.q.q.q.q.q.q.q.q.q./.{. X'.q.q.} !.^.U.q.q.q.q.@X@X@X@X@X@X@X@X@X@X@X@X@X@X@X@X@X@X@X@X@X@X@X@X@X@X@X@X@X@X@X@X",
"q.q.q.q.q.q.q.q.q.q.q.q.q.q.q.q.q.q.!.5 O O     { 1 o o     q.q.@X@X@X@X@X@X@X@X@X@X@X@X@X@X@X@X@X@X@X@X@X@X@X@X@X@X@X@X@X@X@X@X",
"q.q.q.q.q.q.q.q.q.q.q.q.q.q.q.q.} L.| ..0 XX@X@X.X%.q (.[.}.(.q.@X@X@X@X@X@X@X@X@X@X@X@X@X@X@X@X@X@X@X@X@X@X@X@X@X@X@X@X@X@X@X@X",
"q.q.q.q.q.q.q.q.q.q.q.q.q.q.q.q.L.).>. .[.XXOX@X@X|.q.(.].[.[.(.@X@X@X@X@X@X@X@X@X@X@X@X@X@X@X@X@X@X@X@X@X@X@X@X@X@X@X@X@X@X@X@X",
"q.q.q.q.q.q.q.q.q.q.q.q.q.q.q.q.q.8 | i T.!.!./././.O L.L.Y.Y.P.  @X@X@X@X@X@X@X@X@X@X@X@X@X@X@X@X@X@X@X@X@X@X@X@X@X@X@X@X@X@X@X",
"q.q.q.q.q.q.q.q.q.q.q.q.q.q.q.q.C.s I.~.~.~.~./.(./.{ P.P.Y.T.Y.^ @X@X@X@X@X@X@X@X@X@X@X@X@X@X@X@X@X@X@X@X@X@X@X@X@X@X@X@X@X@X@X",
"q.q.q.q.q.q.q.q.q.q.q.q.q.q.q.q.q.q.q.q.L.q.q.q.q.q.q.q.q.q.q.q.@X@X@X@X@X@X@X@X@X@X@X@X@X@X@X@X@X@X@X@X@X@X@X@X@X@X@X@X@X@X@X@X",
"q.q.q.q.q.q.q.q.q.q.q.q.q.q.q.q.q.q.q.q.q.q.q.q.q.q.q.q.q.q.q.q.@X@X@X@X@X@X@X@X@X@X@X@X@X@X@X@X@X@X@X@X@X@X@X@X@X@X@X@X@X@X@X@X",
"q.q.q.q.q.q.q.q.q.q.q.q.q.q.q.q.q.q.q.q.q.q.q.q.q.q.q.q.q.q.q.q.@X@X@X@X@X@X@X@X@X@X@X@X@X@X@X@X@X@X@X@X@X@X@X@X@X@X@X@X@X@X@X@X",
"q.q.q.q.q.q.q.q.q.q.q.q.q.q.q.q.q.q.q.q.q.q.q.q.q.q.q.q.q.q.q.q.@X@X@X@X@X@X@X@X@X@X@X@X@X@X@X@X@X@X@X@X@X@X@X@X@X@X@X@X@X@X@X@X",
"q.q.q.q.q.q.q.q.q.q.q.q.q.q.q.q.q.q.q.q.q.q.q.q.q.q.q.q.q.q.q.q.@X@X@X@X@X@X@X@X@X@X@X@X@X@X@X@X@X@X@X@X@X@X@X@X@X@X@X@X@X@X@X@X",
"q.q.q.q.q.q.q.q.q.q.q.q.q.q.q.q.q.q.q.q.q.q.q.q.q.q.q.q.q.q.q.q.@X@X@X@X@X@X@X@X@X@X@X@X@X@X@X@X@X@X@X@X@X@X@X@X@X@X@X@X@X@X@X@X"
};
